<svg xmlns="http://www.w3.org/2000/svg" viewBox="0 0 64 64" role="img" aria-labelledby="title desc">
  <title id="title">Clover</title>
  <desc id="desc">Four heart-shaped clover leaves bringing lovers closer</desc>
  <path d="M33 34c5 7 8 13 8 22" fill="none" stroke="#6F9386" stroke-width="4" stroke-linecap="round"/>
  <g>
    <path d="M32 32C27 27 19 23 19 16c0-6 4-10 9-9 2 0 4 2 4 4 1-2 3-4 6-4 5 0 8 4 7 9-1 7-8 12-13 16Z" fill="#DC776F"/>
    <path d="M32 32C27 27 19 23 19 16c0-6 4-10 9-9 2 0 4 2 4 4 1-2 3-4 6-4 5 0 8 4 7 9-1 7-8 12-13 16Z" fill="#7A9D90" transform="rotate(90 32 32)"/>
    <path d="M32 32C27 27 19 23 19 16c0-6 4-10 9-9 2 0 4 2 4 4 1-2 3-4 6-4 5 0 8 4 7 9-1 7-8 12-13 16Z" fill="#E8A090" transform="rotate(180 32 32)"/>
    <path d="M32 32C27 27 19 23 19 16c0-6 4-10 9-9 2 0 4 2 4 4 1-2 3-4 6-4 5 0 8 4 7 9-1 7-8 12-13 16Z" fill="#9BB5AA" transform="rotate(270 32 32)"/>
  </g>
  <circle cx="32" cy="32" r="3.5" fill="#FFF9F5"/>
</svg>
